<?xml version="1.0" encoding="UTF-8"?>
<!-- Generator: Adobe Illustrator 24.1.1, SVG Export Plug-In . SVG Version: 6.00 Build 0)  -->
<svg version="1.1" id="Calque_1" xmlns="http://www.w3.org/2000/svg" xmlns:xlink="http://www.w3.org/1999/xlink" x="0px" y="0px" viewBox="0 0 246.3 71.7" style="enable-background:new 0 0 246.3 71.7;" xml:space="preserve">
<style type="text/css">
	.st0{fill:#111111;}
	.st1{fill:url(#SVGID_1_);}
	.st2{fill:#343434;}
</style>
<g>
	<g>
		<path class="st0" d="M68.1,34.5c0,18-14.6,32.5-32.5,32.5S3,52.5,3,34.5l0,0c0-2.1,0.4-5.4,0.5-5.6c0.1-0.6,0.9-0.3,0.9-0.3    s2.3,1.2,2.9,1.4c1.8,0.7,2.1,2.5,2.1,2.5l0.1,2.3l0,0c0,14.4,11.7,26,26,26s26-11.7,26-26l0.1-2.3c0,0,0.3-1.8,2.1-2.5    c0.5-0.2,2.9-1.4,2.9-1.4s0.8-0.3,0.9,0.3C67.6,29.1,68.1,32.4,68.1,34.5"/>
		<linearGradient id="SVGID_1_" gradientUnits="userSpaceOnUse" x1="5.673" y1="12.5539" x2="65.4028" y2="12.5539">
			<stop offset="0" style="stop-color:#82C8B6"/>
			<stop offset="0.1487" style="stop-color:#81C3B9"/>
			<stop offset="0.3959" style="stop-color:#7CB6BE"/>
			<stop offset="0.709" style="stop-color:#769EC3"/>
			<stop offset="0.9888" style="stop-color:#7284C1"/>
		</linearGradient>
		<path class="st1" d="M65.3,21.6C60.3,9.5,48,2,35.5,2C23.6,2,11,8.9,5.7,21.6l0,0c-0.3,0.8,0.6,1.1,0.6,1.1s3.7,0.4,4.2,0.4    c1.7,0,2.6-1.7,2.6-1.7c4.5-7,12-12.7,22.4-12.7c10.4,0,18.1,5.9,22.2,12.5c0,0,1.1,1.8,2.7,1.8s4.4-0.4,4.4-0.4    S65.6,22.5,65.3,21.6L65.3,21.6z"/>
	</g>
	<g>
		<path class="st0" d="M80.2,46c0-0.5,0.2-0.8,0.7-1.1c0.2-0.2,0.5-0.3,0.9-0.3c0.4,0,0.8,0.2,1.2,0.5c2.1,2.8,5,4.3,8.6,4.3    c1.7,0,3.3-0.4,4.6-1.2c1.3-0.8,1.9-2,1.9-3.6c0-1.5-0.6-2.7-1.8-3.4c-1.2-0.8-2.9-1.4-5-2c-3-0.8-5.4-1.8-7.1-3    c-1.7-1.2-2.6-3-2.6-5.4c0-1.5,0.4-2.8,1.3-4c0.8-1.2,2-2.1,3.4-2.8c1.4-0.7,3.1-1,4.9-1c1.6,0,3.1,0.3,4.7,0.9    c1.6,0.6,2.9,1.6,4.1,2.9c0.3,0.3,0.5,0.6,0.5,1.1c0,0.4-0.2,0.8-0.5,1.1c-0.3,0.2-0.6,0.3-1,0.3c-0.4,0-0.7-0.1-1-0.4    c-0.9-1-1.9-1.7-3.1-2.2c-1.2-0.5-2.5-0.8-3.9-0.8c-1.7,0-3.2,0.4-4.4,1.2c-1.2,0.8-1.8,2-1.8,3.6c0.1,1.5,0.7,2.6,2,3.3    c1.3,0.8,3.1,1.5,5.5,2.1c1.9,0.5,3.5,1,4.7,1.6c1.2,0.6,2.3,1.4,3,2.5c0.8,1.1,1.2,2.5,1.2,4.2c0,2.4-0.9,4.3-2.8,5.7    c-1.9,1.4-4.2,2.1-7.1,2.1c-4.4,0-8-1.7-10.6-5C80.3,46.7,80.2,46.3,80.2,46z"/>
		<path class="st0" d="M153.3,23.5c0.6,0.3,0.9,0.7,0.9,1.3c0,0.5-0.1,0.9-0.4,1.2c-0.3,0.3-0.6,0.5-1,0.5c-0.2,0-0.5-0.1-1.1-0.3    c-0.5-0.2-1-0.3-1.5-0.3c-1.3,0-2.7,0.5-4,1.6c-1.3,1-2.4,2.4-3.3,4c-0.9,1.6-1.3,3.3-1.3,5V50c0,0.5-0.2,0.9-0.5,1.2    c-0.3,0.3-0.7,0.5-1.2,0.5c-0.5,0-0.9-0.2-1.2-0.5c-0.3-0.3-0.5-0.7-0.5-1.2V25.5c0-0.5,0.2-0.9,0.5-1.2c0.3-0.3,0.7-0.5,1.2-0.5    c0.5,0,0.9,0.2,1.2,0.5c0.3,0.3,0.5,0.7,0.5,1.2v4.8c0.8-2.1,2.1-3.8,3.8-5.2c1.7-1.4,3.7-2.1,6-2.1C152,23,152.7,23.2,153.3,23.5    z"/>
		<path class="st0" d="M209.1,26c1.6,2,2.4,4.6,2.4,7.9V50c0,0.5-0.2,0.9-0.5,1.2c-0.3,0.3-0.7,0.5-1.1,0.5c-0.5,0-0.9-0.2-1.2-0.5    c-0.3-0.3-0.5-0.7-0.5-1.2V34.1c0-2.4-0.6-4.3-1.8-5.8c-1.2-1.5-3-2.2-5.5-2.2c-1.6,0-3.1,0.4-4.5,1.1c-1.4,0.7-2.5,1.7-3.4,2.9    c-0.9,1.2-1.3,2.5-1.3,4V50c0,0.5-0.2,0.9-0.5,1.2c-0.3,0.3-0.7,0.5-1.2,0.5c-0.5,0-0.9-0.2-1.2-0.5c-0.3-0.3-0.5-0.7-0.5-1.2    V25.5c0-0.5,0.2-0.9,0.5-1.2c0.3-0.3,0.7-0.5,1.2-0.5c0.5,0,0.9,0.2,1.2,0.5c0.3,0.3,0.5,0.7,0.5,1.2v3c1-1.6,2.4-2.9,4.2-3.9    c1.8-1,3.7-1.6,5.7-1.6C205,23,207.5,24,209.1,26z"/>
		<path class="st0" d="M242.8,24.2c0.3,0.3,0.5,0.7,0.5,1.2V50c0,0.5-0.2,0.9-0.5,1.2c-0.3,0.3-0.7,0.5-1.2,0.5    c-0.5,0-0.9-0.2-1.2-0.5c-0.3-0.3-0.5-0.7-0.5-1.2v-3.7c-0.9,1.6-2.3,3-4.1,4.2c-1.8,1.1-3.8,1.7-6,1.7c-2.4,0-4.6-0.6-6.6-1.9    c-2-1.3-3.5-3-4.6-5.2c-1.1-2.2-1.7-4.7-1.7-7.5c0-2.8,0.6-5.3,1.7-7.5c1.1-2.2,2.7-3.9,4.6-5.2c1.9-1.2,4.1-1.9,6.5-1.9    c2.2,0,4.2,0.5,6,1.6c1.8,1.1,3.2,2.4,4.1,4.2v-3.4c0-0.5,0.2-0.9,0.5-1.2c0.3-0.3,0.7-0.5,1.2-0.5    C242.1,23.7,242.5,23.8,242.8,24.2z M235.4,47.6c1.5-1,2.7-2.4,3.6-4.2c0.9-1.8,1.3-3.7,1.3-5.9c0-2.1-0.4-4-1.3-5.8    c-0.9-1.7-2-3.1-3.6-4.1c-1.5-1-3.2-1.5-5.1-1.5c-1.9,0-3.6,0.5-5.1,1.5c-1.5,1-2.7,2.3-3.6,4.1c-0.9,1.7-1.3,3.7-1.3,5.9    s0.4,4.2,1.3,5.9c0.8,1.8,2,3.2,3.5,4.2c1.5,1,3.2,1.5,5.2,1.5C232.2,49.1,233.9,48.6,235.4,47.6z"/>
		<path class="st0" d="M181.2,38.6c-0.3,0.3-0.7,0.5-1.1,0.5h-20.6c0,0.7,0.4,2.8,1.3,4.5c0.9,1.7,2.2,3.1,3.8,4.1    c1.7,1,3.6,1.5,5.9,1.5c1.7,0,3.3-0.4,4.7-1.1c1.4-0.7,2.5-1.7,3.3-2.8c0.4-0.3,0.8-0.5,1.1-0.5c0.4,0,0.7,0.1,1,0.4    c0.3,0.3,0.4,0.6,0.4,1c0,0.4-0.2,0.8-0.5,1.1c-1.2,1.4-2.6,2.6-4.4,3.5c-1.8,0.9-3.6,1.4-5.6,1.4c-2.8,0-5.3-0.6-7.4-1.8    c-2.2-1.2-3.8-2.9-5-5.1c-1.2-2.2-1.8-4.7-1.8-7.5c0-3,0.6-5.6,1.8-7.8c1.2-2.2,2.8-4,4.7-5.1c2-1.2,4.1-1.8,6.3-1.8    c2.2,0,4.2,0.5,6.1,1.5c1.9,1,3.5,2.5,4.7,4.5c1.2,2,1.8,5.7,1.9,8.4C181.7,37.9,181.5,38.2,181.2,38.6z M163.1,28.4    c-1.8,1.5-3.5,4.2-3.7,7.7h19.2v-0.4c-0.2-1.6-0.8-4.2-2-5.7c-1-1.2-2-2.1-3.4-2.8c-1.4-0.6-2.8-1-4.2-1    C166.9,26.2,164.9,26.9,163.1,28.4z"/>
		<path class="st0" d="M131,38.6c-0.3,0.3-0.7,0.5-1.1,0.5h-20.6c0,0.7,0.4,2.8,1.3,4.5c0.9,1.7,2.2,3.1,3.8,4.1    c1.7,1,3.6,1.5,5.9,1.5c1.7,0,3.3-0.4,4.7-1.1c1.4-0.7,2.5-1.7,3.3-2.8c0.4-0.3,0.8-0.5,1.1-0.5c0.4,0,0.7,0.1,1,0.4    c0.3,0.3,0.4,0.6,0.4,1c0,0.4-0.2,0.8-0.5,1.1c-1.2,1.4-2.6,2.6-4.4,3.5c-1.8,0.9-3.6,1.4-5.6,1.4c-2.8,0-5.3-0.6-7.4-1.8    c-2.2-1.2-3.8-2.9-5-5.1c-1.2-2.2-1.8-4.7-1.8-7.5c0-3,0.6-5.6,1.8-7.8c1.2-2.2,2.8-4,4.7-5.1c2-1.2,4.1-1.8,6.3-1.8    c2.2,0,4.2,0.5,6.1,1.5c1.9,1,3.5,2.5,4.7,4.5c1.2,2,1.8,5.7,1.9,8.4C131.4,37.9,131.3,38.2,131,38.6z M112.9,28.4    c-1.8,1.5-3.5,4.2-3.7,7.7h19.2v-0.4c-0.2-1.6-0.8-4.2-2-5.7c-1-1.2-2-2.1-3.4-2.8c-1.4-0.6-2.8-1-4.2-1    C116.7,26.2,114.7,26.9,112.9,28.4z"/>
	</g>
</g>
<g>
	<path class="st2" d="M172.4,59h0.9v3.4h0c0.3-0.5,0.9-0.8,1.6-0.8c1.4,0,2.3,1,2.3,2.4c0,1.4-0.9,2.4-2.3,2.4   c-0.6,0-1.3-0.3-1.6-0.8h0v0.7h-0.9V59z M176.3,64.1c0-0.9-0.6-1.6-1.5-1.6s-1.5,0.7-1.5,1.6s0.6,1.6,1.5,1.6S176.3,65,176.3,64.1z   "/>
	<path class="st2" d="M177.8,61.8h1l1.4,3.6h0l1.3-3.6h0.9l-2.2,5.6c-0.3,0.8-0.6,1.3-1.6,1.3c-0.3,0-0.5,0-0.8-0.1l0.1-0.8   c0.2,0.1,0.4,0.1,0.5,0.1c0.6,0,0.7-0.3,0.9-0.8l0.3-0.7L177.8,61.8z"/>
</g>
<g>
	<path class="st2" d="M185.4,59h1.6l2.2,5.7l2.1-5.7h1.5l-2.9,7.5h-1.6L185.4,59z"/>
	<path class="st2" d="M197.7,58.8c2.2,0,4,1.7,4,3.9s-1.7,3.9-4,3.9c-2.2,0-4-1.7-4-3.9S195.5,58.8,197.7,58.8z M197.7,65.3   c1.5,0,2.5-1.1,2.5-2.6s-0.9-2.6-2.5-2.6c-1.5,0-2.5,1.1-2.5,2.6S196.2,65.3,197.7,65.3z"/>
	<path class="st2" d="M204.9,62.5l-2.6-3.5h1.8l1.8,2.6l1.8-2.6h1.7l-2.5,3.5l3,4H208l-2.2-3.1l-2.2,3.1h-1.7L204.9,62.5z"/>
	<path class="st2" d="M211.1,65.5c0-0.6,0.5-1,1-1c0.6,0,1,0.5,1,1c0,0.6-0.5,1-1,1C211.5,66.5,211.1,66.1,211.1,65.5z"/>
	<path class="st2" d="M220.1,61c-0.5-0.6-1.1-0.8-1.9-0.8c-1.5,0-2.3,1.2-2.3,2.6s0.9,2.5,2.4,2.5c0.8,0,1.3-0.3,1.8-0.8l1,1   c-0.7,0.8-1.7,1.1-2.8,1.1c-2.3,0-3.9-1.6-3.9-3.9c0-2.3,1.6-3.9,3.9-3.9c1.1,0,2.1,0.4,2.9,1.2L220.1,61z"/>
	<path class="st2" d="M222.3,59.9c0.8-0.7,1.9-1.1,3-1.1c2.2,0,3.1,1.2,3.1,2.5v3.8c0,0.5,0,1,0.1,1.4h-1.3c0-0.4,0-0.8,0-1.1h0   c-0.6,1-1.5,1.3-2.6,1.3c-1.4,0-2.6-0.8-2.6-2.2c0-1.9,1.8-2.6,4.1-2.6h1v-0.3c0-0.8-0.6-1.6-1.8-1.6c-1.1,0-1.6,0.5-2.1,0.8   L222.3,59.9z M226.3,62.9c-1.3,0-3,0.2-3,1.4c0,0.8,0.6,1.2,1.6,1.2c1.6,0,2.1-1.2,2.1-2.2v-0.5H226.3z"/>
	<path class="st2" d="M230.5,59h1.4v1.1h0c0.4-0.8,1.3-1.3,2.2-1.3c0.2,0,0.4,0,0.6,0.1l-0.1,1.5c-0.2-0.1-0.5-0.1-0.7-0.1   c-1.4,0-2.1,0.8-2.1,2.4v3.7h-1.4V59z"/>
	<path class="st2" d="M237.1,63.2c0,1.3,1.2,2.2,2.5,2.2c0.9,0,1.5-0.4,2-1.1l1.1,0.8c-0.8,1-1.9,1.5-3.3,1.5   c-2.4,0-3.8-1.7-3.8-3.9c0-2.2,1.6-3.9,3.9-3.9c2.6,0,3.6,2,3.6,3.9v0.5H237.1z M241.5,62.1c0-1.2-0.7-2.2-2.2-2.2   c-1.4,0-2.3,1.2-2.3,2.2H241.5z"/>
</g>
</svg>